<svg width="1024" height="1024" viewBox="0 0 1024 1024" fill="none" xmlns="http://www.w3.org/2000/svg">
  <defs>
    <linearGradient id="bg" x1="160" y1="120" x2="864" y2="904" gradientUnits="userSpaceOnUse">
      <stop offset="0" stop-color="#FAFCFF"/>
      <stop offset="1" stop-color="#ECF5F4"/>
    </linearGradient>
    <linearGradient id="blueStem" x1="288" y1="280" x2="456" y2="744" gradientUnits="userSpaceOnUse">
      <stop offset="0" stop-color="#3D6FEF"/>
      <stop offset="1" stop-color="#2249B8"/>
    </linearGradient>
    <linearGradient id="tealTile" x1="540" y1="520" x2="724" y2="712" gradientUnits="userSpaceOnUse">
      <stop offset="0" stop-color="#57AEA7"/>
      <stop offset="1" stop-color="#2B8079"/>
    </linearGradient>
    <filter id="cardShadow" x="168" y="160" width="690" height="720" filterUnits="userSpaceOnUse" color-interpolation-filters="sRGB">
      <feFlood flood-opacity="0" result="BackgroundImageFix"/>
      <feColorMatrix in="SourceAlpha" type="matrix" values="0 0 0 0 0 0 0 0 0 0 0 0 0 0 0 0 0 0 127 0" result="hardAlpha"/>
      <feOffset dy="24"/>
      <feGaussianBlur stdDeviation="20"/>
      <feColorMatrix type="matrix" values="0 0 0 0 0.0588235 0 0 0 0 0.0901961 0 0 0 0 0.164706 0 0 0 0.11 0"/>
      <feBlend mode="normal" in2="BackgroundImageFix" result="effect1_dropShadow_21_1"/>
      <feBlend mode="normal" in="SourceGraphic" in2="effect1_dropShadow_21_1" result="shape"/>
    </filter>
  </defs>

  <rect x="96" y="96" width="832" height="832" rx="224" fill="url(#bg)"/>

  <rect x="224" y="192" width="544" height="544" rx="144" fill="#DCE8FF" opacity="0.52"/>
  <g filter="url(#cardShadow)">
    <rect x="208" y="208" width="608" height="608" rx="152" fill="#FFFFFF"/>
    <rect x="288" y="280" width="176" height="464" rx="88" fill="url(#blueStem)"/>
    <rect x="528" y="288" width="192" height="144" rx="72" fill="#DCE8FF"/>
    <rect x="528" y="520" width="192" height="184" rx="88" fill="url(#tealTile)"/>
    <rect x="360" y="336" width="320" height="80" rx="40" fill="#F7FAFE"/>
    <rect x="360" y="488" width="208" height="72" rx="36" fill="#F7FAFE"/>
  </g>

  <path d="M632 312L708 388" stroke="#2E7E79" stroke-width="26" stroke-linecap="round"/>
  <path d="M616 388H736" stroke="#2E7E79" stroke-width="26" stroke-linecap="round"/>
</svg>
