<svg width="1024" height="1024" viewBox="0 0 1024 1024" fill="none" xmlns="http://www.w3.org/2000/svg">
  <defs>
    <linearGradient id="bg" x1="176" y1="128" x2="832" y2="896" gradientUnits="userSpaceOnUse">
      <stop offset="0" stop-color="#F8FBFF"/>
      <stop offset="1" stop-color="#E8F5F4"/>
    </linearGradient>
    <linearGradient id="stem" x1="260" y1="250" x2="612" y2="790" gradientUnits="userSpaceOnUse">
      <stop offset="0" stop-color="#3D69E3"/>
      <stop offset="1" stop-color="#2348B8"/>
    </linearGradient>
    <linearGradient id="tile" x1="486" y1="496" x2="718" y2="712" gradientUnits="userSpaceOnUse">
      <stop offset="0" stop-color="#55AFA8"/>
      <stop offset="1" stop-color="#2F857E"/>
    </linearGradient>
    <filter id="shadow" x="186" y="176" width="590" height="642" filterUnits="userSpaceOnUse" color-interpolation-filters="sRGB">
      <feFlood flood-opacity="0" result="BackgroundImageFix"/>
      <feColorMatrix in="SourceAlpha" type="matrix" values="0 0 0 0 0 0 0 0 0 0 0 0 0 0 0 0 0 0 127 0" result="hardAlpha"/>
      <feOffset dy="20"/>
      <feGaussianBlur stdDeviation="18"/>
      <feColorMatrix type="matrix" values="0 0 0 0 0.0588235 0 0 0 0 0.0901961 0 0 0 0 0.164706 0 0 0 0.12 0"/>
      <feBlend mode="normal" in2="BackgroundImageFix" result="effect1_dropShadow_11_1"/>
      <feBlend mode="normal" in="SourceGraphic" in2="effect1_dropShadow_11_1" result="shape"/>
    </filter>
  </defs>
  <rect x="96" y="96" width="832" height="832" rx="220" fill="url(#bg)"/>
  <circle cx="290" cy="276" r="58" fill="#DCE8FF"/>
  <circle cx="744" cy="758" r="56" fill="#D6F5F1"/>
  <g filter="url(#shadow)">
    <rect x="252" y="252" width="312" height="500" rx="110" fill="url(#stem)"/>
    <rect x="500" y="292" width="214" height="140" rx="68" fill="#DCE8FF"/>
    <rect x="494" y="504" width="222" height="184" rx="84" fill="url(#tile)"/>
    <rect x="334" y="314" width="356" height="164" rx="82" fill="#F8FAFD"/>
    <rect x="334" y="506" width="242" height="144" rx="72" fill="#F8FAFD"/>
  </g>
  <path d="M648 306L720 378" stroke="#2E7E79" stroke-width="26" stroke-linecap="round"/>
  <path d="M632 378H748" stroke="#2E7E79" stroke-width="26" stroke-linecap="round"/>
</svg>
