<svg width="1024" height="1024" viewBox="0 0 1024 1024" fill="none" xmlns="http://www.w3.org/2000/svg">
  <defs>
    <linearGradient id="bg" x1="170" y1="118" x2="850" y2="902" gradientUnits="userSpaceOnUse">
      <stop offset="0" stop-color="#F8FBFF"/>
      <stop offset="1" stop-color="#EAF5F4"/>
    </linearGradient>
    <linearGradient id="panelA" x1="262" y1="274" x2="486" y2="756" gradientUnits="userSpaceOnUse">
      <stop offset="0" stop-color="#2563EB"/>
      <stop offset="1" stop-color="#1749B5"/>
    </linearGradient>
    <linearGradient id="panelC" x1="536" y1="542" x2="728" y2="734" gradientUnits="userSpaceOnUse">
      <stop offset="0" stop-color="#4FA59D"/>
      <stop offset="1" stop-color="#2C8079"/>
    </linearGradient>
    <filter id="shadow" x="160" y="168" width="700" height="694" filterUnits="userSpaceOnUse" color-interpolation-filters="sRGB">
      <feFlood flood-opacity="0" result="BackgroundImageFix"/>
      <feColorMatrix in="SourceAlpha" type="matrix" values="0 0 0 0 0 0 0 0 0 0 0 0 0 0 0 0 0 0 127 0" result="hardAlpha"/>
      <feOffset dy="20"/>
      <feGaussianBlur stdDeviation="18"/>
      <feColorMatrix type="matrix" values="0 0 0 0 0.0588235 0 0 0 0 0.0901961 0 0 0 0 0.164706 0 0 0 0.12 0"/>
      <feBlend mode="normal" in2="BackgroundImageFix" result="effect1_dropShadow_13_1"/>
      <feBlend mode="normal" in="SourceGraphic" in2="effect1_dropShadow_13_1" result="shape"/>
    </filter>
  </defs>
  <rect x="96" y="96" width="832" height="832" rx="220" fill="url(#bg)"/>
  <circle cx="300" cy="278" r="52" fill="#DCE8FF"/>
  <circle cx="744" cy="760" r="54" fill="#D6F5F1"/>
  <g filter="url(#shadow)">
    <rect x="214" y="214" width="596" height="596" rx="156" fill="#FFFFFF"/>
    <rect x="280" y="284" width="176" height="454" rx="86" fill="url(#panelA)"/>
    <rect x="522" y="292" width="208" height="136" rx="64" fill="#DCE8FF"/>
    <rect x="536" y="548" width="184" height="170" rx="78" fill="url(#panelC)"/>
    <rect x="356" y="326" width="300" height="62" rx="31" fill="#F8FAFD"/>
    <rect x="356" y="486" width="158" height="58" rx="29" fill="#F8FAFD"/>
  </g>
  <path d="M646 308L714 376" stroke="#2E7E79" stroke-width="24" stroke-linecap="round"/>
  <path d="M628 376H740" stroke="#2E7E79" stroke-width="24" stroke-linecap="round"/>
</svg>
