<svg width="1024" height="1024" viewBox="0 0 1024 1024" fill="none" xmlns="http://www.w3.org/2000/svg">
  <defs>
    <linearGradient id="bg" x1="170" y1="118" x2="850" y2="902" gradientUnits="userSpaceOnUse">
      <stop offset="0" stop-color="#F7FAFF"/>
      <stop offset="1" stop-color="#EAF4F3"/>
    </linearGradient>
    <linearGradient id="panelA" x1="238" y1="272" x2="764" y2="774" gradientUnits="userSpaceOnUse">
      <stop offset="0" stop-color="#2563EB"/>
      <stop offset="1" stop-color="#1749B5"/>
    </linearGradient>
    <linearGradient id="panelC" x1="526" y1="366" x2="768" y2="748" gradientUnits="userSpaceOnUse">
      <stop offset="0" stop-color="#14B8A6"/>
      <stop offset="1" stop-color="#0F766E"/>
    </linearGradient>
    <filter id="shadow" x="150" y="164" width="724" height="702" filterUnits="userSpaceOnUse" color-interpolation-filters="sRGB">
      <feFlood flood-opacity="0" result="BackgroundImageFix"/>
      <feColorMatrix in="SourceAlpha" type="matrix" values="0 0 0 0 0 0 0 0 0 0 0 0 0 0 0 0 0 0 127 0" result="hardAlpha"/>
      <feOffset dy="28"/>
      <feGaussianBlur stdDeviation="26"/>
      <feColorMatrix type="matrix" values="0 0 0 0 0.0588235 0 0 0 0 0.0901961 0 0 0 0 0.164706 0 0 0 0.15 0"/>
      <feBlend mode="normal" in2="BackgroundImageFix" result="effect1_dropShadow_3_1"/>
      <feBlend mode="normal" in="SourceGraphic" in2="effect1_dropShadow_3_1" result="shape"/>
    </filter>
  </defs>
  <rect x="96" y="96" width="832" height="832" rx="220" fill="url(#bg)"/>
  <circle cx="298" cy="274" r="60" fill="#DCE8FF"/>
  <circle cx="744" cy="760" r="58" fill="#D6F5F1"/>
  <g filter="url(#shadow)">
    <rect x="214" y="216" width="596" height="596" rx="154" fill="#FFFFFF"/>
    <rect x="274" y="294" width="182" height="438" rx="72" fill="url(#panelA)"/>
    <rect x="504" y="294" width="246" height="160" rx="70" fill="#DCE8FF"/>
    <rect x="504" y="510" width="246" height="222" rx="82" fill="url(#panelC)"/>
    <rect x="356" y="374" width="340" height="72" rx="36" fill="#F4F7FB"/>
    <rect x="356" y="510" width="208" height="72" rx="36" fill="#F4F7FB"/>
  </g>
  <path d="M694 280L770 356" stroke="#0F766E" stroke-width="26" stroke-linecap="round"/>
  <path d="M694 356H804" stroke="#0F766E" stroke-width="26" stroke-linecap="round"/>
</svg>
