<svg width="1024" height="1024" viewBox="0 0 1024 1024" fill="none" xmlns="http://www.w3.org/2000/svg">
  <defs>
    <linearGradient id="bg" x1="172" y1="122" x2="858" y2="906" gradientUnits="userSpaceOnUse">
      <stop offset="0" stop-color="#F8FBFF"/>
      <stop offset="1" stop-color="#E6F6F4"/>
    </linearGradient>
    <linearGradient id="loop" x1="276" y1="232" x2="774" y2="798" gradientUnits="userSpaceOnUse">
      <stop offset="0" stop-color="#2563EB"/>
      <stop offset="0.56" stop-color="#1754C5"/>
      <stop offset="1" stop-color="#0F766E"/>
    </linearGradient>
    <filter id="shadow" x="206" y="164" width="642" height="704" filterUnits="userSpaceOnUse" color-interpolation-filters="sRGB">
      <feFlood flood-opacity="0" result="BackgroundImageFix"/>
      <feColorMatrix in="SourceAlpha" type="matrix" values="0 0 0 0 0 0 0 0 0 0 0 0 0 0 0 0 0 0 127 0" result="hardAlpha"/>
      <feOffset dy="20"/>
      <feGaussianBlur stdDeviation="18"/>
      <feColorMatrix type="matrix" values="0 0 0 0 0.0588235 0 0 0 0 0.0901961 0 0 0 0 0.164706 0 0 0 0.12 0"/>
      <feBlend mode="normal" in2="BackgroundImageFix" result="effect1_dropShadow_12_1"/>
      <feBlend mode="normal" in="SourceGraphic" in2="effect1_dropShadow_12_1" result="shape"/>
    </filter>
  </defs>
  <rect x="96" y="96" width="832" height="832" rx="220" fill="url(#bg)"/>
  <circle cx="286" cy="320" r="52" fill="#DCE8FF"/>
  <circle cx="754" cy="754" r="64" fill="#D6F5F1"/>
  <g filter="url(#shadow)">
    <path d="M654 284C716 284 766 334 766 396C766 456 720 506 660 506H476C426 506 386 546 386 596C386 656 434 704 494 704C554 704 602 656 602 596V334C602 262 546 206 474 206C402 206 346 262 346 334C346 364 356 390 376 410" stroke="url(#loop)" stroke-width="104" stroke-linecap="round" stroke-linejoin="round"/>
    <path d="M408 398H648" stroke="#F8FAFD" stroke-width="52" stroke-linecap="round"/>
  </g>
  <path d="M666 286L734 354" stroke="#2E7E79" stroke-width="24" stroke-linecap="round"/>
  <path d="M646 354H752" stroke="#2E7E79" stroke-width="24" stroke-linecap="round"/>
</svg>
