<svg width="1024" height="1024" viewBox="0 0 1024 1024" fill="none" xmlns="http://www.w3.org/2000/svg">
  <defs>
    <linearGradient id="bg" x1="176" y1="128" x2="832" y2="896" gradientUnits="userSpaceOnUse">
      <stop offset="0" stop-color="#F7FAFF"/>
      <stop offset="1" stop-color="#E6F4F3"/>
    </linearGradient>
    <linearGradient id="cardA" x1="314" y1="268" x2="792" y2="816" gradientUnits="userSpaceOnUse">
      <stop offset="0" stop-color="#3674F0"/>
      <stop offset="1" stop-color="#1749B5"/>
    </linearGradient>
    <linearGradient id="cardB" x1="252" y1="332" x2="726" y2="820" gradientUnits="userSpaceOnUse">
      <stop offset="0" stop-color="#0FA5A1"/>
      <stop offset="1" stop-color="#0F766E"/>
    </linearGradient>
    <filter id="shadow" x="126" y="110" width="772" height="804" filterUnits="userSpaceOnUse" color-interpolation-filters="sRGB">
      <feFlood flood-opacity="0" result="BackgroundImageFix"/>
      <feColorMatrix in="SourceAlpha" type="matrix" values="0 0 0 0 0 0 0 0 0 0 0 0 0 0 0 0 0 0 127 0" result="hardAlpha"/>
      <feOffset dy="26"/>
      <feGaussianBlur stdDeviation="25"/>
      <feColorMatrix type="matrix" values="0 0 0 0 0.0588235 0 0 0 0 0.0901961 0 0 0 0 0.164706 0 0 0 0.14 0"/>
      <feBlend mode="normal" in2="BackgroundImageFix" result="effect1_dropShadow_1_1"/>
      <feBlend mode="normal" in="SourceGraphic" in2="effect1_dropShadow_1_1" result="shape"/>
    </filter>
  </defs>
  <rect x="96" y="96" width="832" height="832" rx="220" fill="url(#bg)"/>
  <circle cx="784" cy="268" r="66" fill="#DCE8FF"/>
  <circle cx="292" cy="760" r="54" fill="#D6F5F1"/>
  <g filter="url(#shadow)">
    <rect x="252" y="248" width="366" height="528" rx="118" fill="url(#cardA)"/>
    <rect x="352" y="276" width="388" height="188" rx="90" fill="#F4F7FB"/>
    <rect x="352" y="524" width="286" height="156" rx="78" fill="#F4F7FB"/>
    <path d="M314 332C314 295.549 343.549 266 380 266H602C638.451 266 668 295.549 668 332V360H314V332Z" fill="#78A2FF" fill-opacity="0.44"/>
  </g>
  <path d="M708 338L776 406" stroke="#0F766E" stroke-width="30" stroke-linecap="round"/>
  <path d="M698 406H804" stroke="#0F766E" stroke-width="30" stroke-linecap="round"/>
</svg>
